<svg height="464pt" viewBox="0 0 464 464" width="464pt" xmlns="http://www.w3.org/2000/svg"><path d="m464 91.640625-144 85.199219-144-88.414063 144-88.425781zm0 0" fill="#e8594a"/><path d="m176 88.425781v159.148438l144 88.425781v-159.160156zm0 0" fill="#db4a3b"/><path d="m464 91.640625v159.152344l-144 85.207031v-159.160156zm0 0" fill="#c44639"/><path d="m0 208v224c0 17.671875 14.328125 32 32 32h256v-208l-48-48h-192" fill="#4398d1"/><path d="m48 400h-16c-17.671875 0-32 14.328125-32 32v-240c0-17.671875 14.328125-32 32-32h16zm0 0" fill="#87ced9"/><path d="m288 256h-48v-48zm0 0" fill="#87ced9"/><path d="m240 376h192v48h-192zm0 0" fill="#fdb62f"/><path d="m392 376h16v24h-16zm0 0" fill="#fd882f"/><path d="m360 376h16v24h-16zm0 0" fill="#fd882f"/><path d="m328 376h16v24h-16zm0 0" fill="#fd882f"/><path d="m296 376h16v24h-16zm0 0" fill="#fd882f"/><path d="m264 376h16v24h-16zm0 0" fill="#fd882f"/><path d="m215.910156 304.800781c-.023437-.445312-.082031-.886719-.175781-1.320312-.078125-.289063-.214844-.542969-.320313-.800781-.117187-.367188-.265624-.726563-.445312-1.070313-.167969-.277344-.355469-.546875-.554688-.800781-.199218-.292969-.417968-.574219-.652343-.839844-.253907-.246094-.519531-.472656-.800781-.679688-.191407-.183593-.394532-.355468-.609376-.511718l-64-41.457032c-2.605468-1.6875-5.949218-1.714843-8.582031-.074218l-64 40c-.257812.160156-.457031.386718-.699219.570312-.265624.191406-.519531.402344-.757812.632813-.265625.285156-.507812.589843-.71875.917969-.191406.222656-.363281.457031-.523438.703124-.199218.398438-.375.804688-.519531 1.226563-.078125.222656-.199219.429687-.261719.671875-.183593.660156-.28125 1.34375-.289062 2.03125v64c0 2.757812 1.421875 5.320312 3.761719 6.785156l64 40 .125.054688c.066406.039062.113281.097656.175781.128906.40625.203125.824219.375 1.257812.511719.199219.0625.375.175781.574219.222656 1.363281.386719 2.800781.386719 4.160157 0 .210937-.054687.410156-.167969.617187-.238281.414063-.128906.820313-.289063 1.207031-.480469l.128906-.097656.121094-.054688 64-38.542969c2.394532-1.445312 3.863282-4.035156 3.871094-6.832031v-64c0-.234375-.070312-.449219-.089844-.65625zm-72-31.289062 48.984375 31.710937-31.710937 19.105469-17.105469 10.289063-48.980469-30.617188zm-55.910156 44.929687 48 30v45.160156l-48-30zm64 75.398438v-45.320313l41.96875-25.273437 6.03125-3.636719v45.320313zm0 0" fill="#126099"/><path d="m243.761719 73.214844 38.398437-23.996094 8.476563 13.558594-38.398438 24zm0 0" fill="#ff8073"/><path d="m294.960938 41.214844 12.800781-8 8.476562 13.558594-12.804687 8.003906zm0 0" fill="#ff8073"/><path d="m200 144h16v40h-16zm0 0" fill="#ff8073"/><g fill="#2181c2"><path d="m232 304h32v16h-32zm0 0"/><path d="m232 336h32v16h-32zm0 0"/><path d="m72 416h16v16h-16zm0 0"/><path d="m72 240h16v16h-16zm0 0"/><path d="m200 416h16v16h-16zm0 0"/><path d="m200 240h16v16h-16zm0 0"/></g></svg>