<?xml version="1.0" encoding="iso-8859-1"?>
<!-- Generator: Adobe Illustrator 19.0.0, SVG Export Plug-In . SVG Version: 6.00 Build 0)  -->
<svg xmlns="http://www.w3.org/2000/svg" xmlns:xlink="http://www.w3.org/1999/xlink" version="1.1" id="Capa_1" x="0px" y="0px" viewBox="0 0 512 512" style="enable-background:new 0 0 512 512;" xml:space="preserve" width="100px" height="65px">
<g>
	<g>
		<path d="M59.374,84.267c-13.421,0-24.34,10.919-24.34,24.34s10.919,24.34,24.34,24.34s24.34-10.919,24.34-24.34    S72.795,84.267,59.374,84.267z M59.374,117.74c-5.036,0-9.132-4.097-9.132-9.132c0-5.035,4.097-9.132,9.132-9.132    c5.035,0,9.132,4.097,9.132,9.132C68.506,113.643,64.409,117.74,59.374,117.74z" fill="#0a1c58"/>
	</g>
</g>
<g>
	<g>
		<path d="M115.718,84.268c-13.42,0-24.34,10.919-24.34,24.34c0,13.42,10.918,24.34,24.34,24.34c13.421,0,24.34-10.919,24.34-24.34    C140.058,95.187,129.139,84.268,115.718,84.268z M115.718,117.738c-5.035,0-9.132-4.097-9.132-9.132s4.096-9.132,9.132-9.132    s9.132,4.097,9.132,9.132S120.753,117.738,115.718,117.738z" fill="#0a1c58"/>
	</g>
</g>
<g>
	<g>
		<path d="M172.062,84.268c-13.421,0-24.34,10.919-24.34,24.34c0,13.42,10.919,24.34,24.34,24.34s24.34-10.919,24.34-24.34    C196.402,95.187,185.483,84.268,172.062,84.268z M172.062,117.738c-5.036,0-9.132-4.097-9.132-9.132s4.097-9.132,9.132-9.132    c5.035,0,9.132,4.097,9.132,9.132S177.097,117.738,172.062,117.738z" fill="#0a1c58"/>
	</g>
</g>
<g>
	<g>
		<path d="M268.198,389.392l-26.596-4.792c-3.157-7.56-7.262-14.654-12.253-21.174l9.17-25.453c1.247-3.463-0.164-7.322-3.353-9.163    l-42.328-24.434c-3.188-1.838-7.235-1.133-9.61,1.679l-17.452,20.658c-8.132-1.045-16.314-1.047-24.467,0.001l-17.453-20.659    c-2.374-2.811-6.423-3.519-9.61-1.678L71.926,328.81c-3.188,1.84-4.599,5.698-3.353,9.16l9.162,25.454    c-4.994,6.524-9.098,13.62-12.248,21.176l-26.603,4.792c-3.622,0.653-6.255,3.804-6.255,7.483v27.323    c0,4.199,3.405,7.604,7.604,7.604c4.199,0,7.604-3.405,7.604-7.604v-20.967l24.535-4.419c2.665-0.481,4.875-2.342,5.799-4.888    c3.203-8.818,7.907-16.951,13.981-24.172c1.745-2.074,2.254-4.92,1.335-7.47l-8.451-23.481l31.306-18.076l16.093,19.049    c1.745,2.066,4.453,3.049,7.12,2.583c9.284-1.626,18.727-1.623,27.971,0c2.666,0.468,5.376-0.516,7.123-2.582l16.093-19.049    l31.314,18.076l-8.46,23.48c-0.919,2.551-0.411,5.398,1.335,7.472c6.07,7.217,10.778,15.351,13.993,24.178    c0.927,2.543,3.134,4.401,5.796,4.882l24.525,4.418V424.2c0,4.199,3.404,7.604,7.604,7.604s7.604-3.405,7.604-7.604v-27.323    C274.454,393.196,271.819,390.044,268.198,389.392z" fill="#0a1c58"/>
	</g>
</g>
<g>
	<g>
		<path d="M153.541,367.311c-10.672,0-20.99,3.107-29.836,8.985c-15.13,10.045-24.162,26.873-24.162,45.013    c0,1.127,0.037,2.263,0.107,3.374c0.268,4.191,3.877,7.369,8.073,7.104c4.191-0.268,7.372-3.883,7.104-8.073    c-0.051-0.791-0.076-1.6-0.076-2.405c0-13.032,6.492-25.123,17.368-32.345c6.346-4.217,13.754-6.445,21.422-6.445    c21.389,0,38.79,17.401,38.79,38.79c0,0.81-0.025,1.619-0.076,2.405c-0.268,4.19,2.913,7.806,7.104,8.073    c0.165,0.01,0.328,0.016,0.492,0.016c3.977,0,7.324-3.093,7.582-7.119c0.071-1.106,0.106-2.242,0.106-3.374    C207.539,391.534,183.316,367.311,153.541,367.311z" fill="#0a1c58"/>
	</g>
</g>
<g>
	<g>
		<path d="M481.134,299.203l-23.054-14.103c-0.199-8.188-1.451-16.288-3.739-24.178l17.769-20.399    c2.417-2.776,2.5-6.883,0.197-9.753l-30.584-38.118c-2.302-2.872-6.333-3.679-9.565-1.921l-23.756,12.926    c-3.591-1.955-7.314-3.684-11.115-5.163c-3.804-1.479-7.719-2.721-11.688-3.708l-8.776-25.581    c-1.194-3.482-4.708-5.611-8.349-5.048l-48.303,7.432c-3.637,0.56-6.352,3.644-6.445,7.322l-0.686,27.044    c-7.018,4.27-13.414,9.394-19.094,15.296l-26.523-5.183c-3.611-0.703-7.211,1.276-8.545,4.706l-17.717,45.544    c-1.334,3.43-0.021,7.323,3.119,9.243l23.053,14.102c0.198,8.184,1.45,16.284,3.738,24.182l-17.767,20.395    c-2.417,2.775-2.5,6.883-0.198,9.753l30.584,38.118c2.303,2.871,6.333,3.679,9.565,1.921l23.754-12.922    c3.592,1.955,7.318,3.685,11.121,5.165c3.801,1.478,7.715,2.719,11.683,3.706l8.778,25.577c1.067,3.108,3.984,5.136,7.187,5.136    c0.383,0,0.771-0.029,1.162-0.087l48.302-7.432c3.637-0.56,6.352-3.644,6.445-7.323l0.685-27.039    c7.023-4.274,13.419-9.401,19.096-15.299l26.523,5.183c3.609,0.703,7.211-1.276,8.545-4.706l17.717-45.544    C485.587,305.017,484.274,301.125,481.134,299.203z M454.666,342.552l-24.459-4.779c-2.658-0.52-5.392,0.415-7.177,2.451    c-6.183,7.054-13.521,12.933-21.806,17.471c-2.376,1.302-3.88,3.768-3.949,6.477l-0.633,24.941l-35.733,5.497l-8.094-23.581    c-0.878-2.559-3.049-4.458-5.701-4.988c-4.583-0.916-9.117-2.241-13.474-3.936c-4.36-1.696-8.598-3.784-12.594-6.205    c-1.208-0.732-2.573-1.1-3.94-1.1c-1.248,0-2.498,0.307-3.633,0.923l-21.9,11.914l-22.625-28.199l16.389-18.811    c1.779-2.043,2.337-4.878,1.465-7.443c-3.042-8.945-4.478-18.236-4.268-27.614c0.061-2.707-1.323-5.243-3.634-6.656l-21.26-13.005    l13.107-33.693l24.459,4.779c2.657,0.52,5.391-0.414,7.176-2.449c6.191-7.061,13.526-12.937,21.803-17.466    c2.376-1.301,3.882-3.768,3.951-6.478l0.634-24.946l35.734-5.497l8.091,23.585c0.878,2.559,3.05,4.459,5.702,4.989    c4.583,0.917,9.118,2.242,13.478,3.938c4.357,1.695,8.592,3.782,12.59,6.204c2.314,1.401,5.198,1.468,7.573,0.175l21.902-11.918    l22.625,28.198l-16.391,18.817c-1.78,2.043-2.338,4.88-1.465,7.445c3.041,8.932,4.477,18.22,4.269,27.607    c-0.061,2.707,1.324,5.242,3.634,6.655l21.26,13.006L454.666,342.552z" fill="#0a1c58"/>
	</g>
</g>
<g>
	<g>
		<path d="M408.702,297.121c-3.914-1.522-8.321,0.418-9.844,4.33c-3.757,9.658-11.051,17.275-20.536,21.447    c-9.486,4.172-20.028,4.401-29.687,0.644c-7.149-2.781-13.245-7.546-17.633-13.785c-7.513-10.668-9.177-24.289-4.453-36.434    c4.725-12.147,15.157-21.061,27.906-23.846c0.101-0.022,0.203-0.047,0.303-0.073c7.356-1.547,14.956-0.919,22.007,1.825    c12.031,4.679,20.922,15.001,23.783,27.609c0.929,4.095,5,6.662,9.098,5.732c4.095-0.93,6.662-5.002,5.732-9.098    c-3.979-17.543-16.353-31.904-33.099-38.418c-9.947-3.87-20.694-4.713-31.075-2.442c-0.12,0.026-0.237,0.055-0.354,0.086    c-17.575,3.963-31.943,16.317-38.475,33.109c-6.576,16.905-4.261,35.86,6.19,50.699c6.115,8.695,14.607,15.337,24.557,19.206    c6.353,2.472,12.978,3.704,19.596,3.704c7.387,0,14.763-1.537,21.727-4.598c13.204-5.807,23.355-16.41,28.586-29.854    C414.554,303.051,412.616,298.644,408.702,297.121z" fill="#0a1c58"/>
	</g>
</g>
<g>
	<g>
		<path d="M471.892,60.062H40.101c-22.11,0-40.098,17.988-40.098,40.098v50.959c0,0.023-0.003,0.046-0.003,0.069    s0.003,0.046,0.003,0.069V411.84c0,22.11,17.988,40.098,40.098,40.098h431.791c22.115,0,40.108-17.988,40.108-40.098V100.16    C512,78.05,494.008,60.062,471.892,60.062z M496.793,411.84c-0.001,13.724-11.171,24.89-24.901,24.89H40.101    c-13.725,0-24.89-11.166-24.89-24.89V158.793h54.241c4.199,0,7.604-3.405,7.604-7.604c0-4.199-3.405-7.604-7.604-7.604H15.211    V100.16c0-13.725,11.166-24.89,24.89-24.89h431.791c13.73,0,24.9,11.166,24.9,24.89v43.424H96.75    c-4.199,0-7.604,3.405-7.604,7.604c0,4.199,3.405,7.604,7.604,7.604h400.043V411.84z" fill="#0a1c58"/>
	</g>
</g>
<g>
</g>
<g>
</g>
<g>
</g>
<g>
</g>
<g>
</g>
<g>
</g>
<g>
</g>
<g>
</g>
<g>
</g>
<g>
</g>
<g>
</g>
<g>
</g>
<g>
</g>
<g>
</g>
<g>
</g>
</svg>
