<svg height="511pt" viewBox="0 -19 511.99814 511" width="511pt" xmlns="http://www.w3.org/2000/svg"><path d="m68.757812 330.890625h-27.820312c-13.132812 0-23.777344 10.644531-23.777344 23.777344v87.132812h75.375v-87.132812c0-13.132813-10.644531-23.777344-23.777344-23.777344zm0 0" fill="#00b8ff"/><path d="m198.058594 290.890625h-27.824219c-13.128906 0-23.777344 10.648437-23.777344 23.777344v127.132812h75.378907v-127.132812c0-13.128907-10.644532-23.777344-23.777344-23.777344zm0 0" fill="#c5e8ff"/><path d="m327.355469 236.46875h-27.820313c-13.132812 0-23.777344 10.644531-23.777344 23.777344v181.554687h75.375v-181.554687c0-13.132813-10.644531-23.777344-23.777343-23.777344zm0 0" fill="#00b8ff"/><path d="m480.433594 356.632812v-170.433593c0-13.132813-10.644532-23.777344-23.777344-23.777344h-27.820312c-13.132813 0-23.777344 10.644531-23.777344 23.777344v169.1875c22.210937-17.351563 53.644531-16.910157 75.375 1.246093zm0 0" fill="#c5e8ff"/><path d="m34.207031 262.167969c58.644531-14.457031 258.089844-69.566407 379.347657-176.441407 4.050781-3.566406 10.238281-3.082031 13.632812 1.113282l13.78125 17.03125c3.804688 4.707031 11.367188 2.929687 12.679688-2.980469l17.453124-78.628906c1.347657-6.070313-3.296874-11.8125-9.515624-11.761719l-80.539063.652344c-6.054687.050781-9.371094 7.074218-5.5625 11.78125l13.632813 16.847656c3.253906 4.023438 2.679687 9.917969-1.300782 13.222656-119.089844 98.761719-301.992187 154.652344-363.417968 171.4375-11.144532 3.046875-17.199219 15.066406-13.023438 25.84375 3.542969 9.140625 13.316406 14.226563 22.832031 11.882813zm0 0" fill="#3df399"/><path d="m405.058594 355.382812c-14.066406 10.988282-23.109375 28.105469-23.109375 47.335938 0 33.148438 26.871093 60.023438 60.023437 60.023438 33.148438 0 60.023438-26.875 60.023438-60.023438 0-50.046875-57.730469-77.957031-96.9375-47.335938zm0 0" fill="#3df399"/><path d="m68.757812 320.890625h-27.820312c-18.625 0-33.777344 15.152344-33.777344 33.777344v87.132812c0 5.519531 4.476563 10 10 10h75.375c5.523438 0 10-4.480469 10-10v-87.132812c0-18.625-15.152344-33.777344-33.777344-33.777344zm13.777344 110.910156h-55.378906v-77.132812c0-7.597657 6.183594-13.78125 13.78125-13.78125h27.820312c7.597657 0 13.78125 6.183593 13.78125 13.78125v77.132812zm0 0"/><path d="m198.058594 280.890625h-27.824219c-18.621094 0-33.773437 15.152344-33.773437 33.777344v127.132812c0 5.519531 4.476562 10 9.996093 10h75.378907c5.523437 0 10-4.480469 10-10v-127.132812c0-18.625-15.152344-33.777344-33.777344-33.777344zm13.777344 150.910156h-55.378907v-117.132812c0-7.597657 6.179688-13.777344 13.777344-13.777344h27.824219c7.597656 0 13.777344 6.179687 13.777344 13.777344zm0 0"/><path d="m327.359375 226.46875h-27.824219c-18.625 0-33.777344 15.152344-33.777344 33.777344v181.554687c0 5.519531 4.476563 9.996094 10 9.996094h75.375c5.523438 0 10-4.476563 10-9.996094v-181.554687c0-18.625-15.152343-33.777344-33.773437-33.777344zm13.777344 205.332031h-55.378907v-171.554687c0-7.597656 6.179688-13.777344 13.777344-13.777344h27.824219c7.597656 0 13.777344 6.183594 13.777344 13.777344zm0 0"/><path d="m433.195312 110.160156c4.195313 5.1875 10.84375 7.460938 17.335938 5.9375 6.5-1.527344 11.433594-6.523437 12.878906-13.039062l17.453125-78.632813c2.699219-12.15625-6.4375-23.929687-19.355469-23.925781l-80.542968.652344c-6.675782.058594-12.589844 3.839844-15.441406 9.875-2.847657 6.035156-2.011719 13.007812 2.1875 18.195312l13.296874 16.433594c-50.335937 41.648438-117.746093 80.195312-200.363281 114.574219-67.890625 28.25-128.683593 46.3125-158.878906 54.5625-8.035156 2.199219-14.796875 7.722656-18.546875 15.160156-11.3125 22.429687 8.964844 47.9375 33.382812 41.917969 41.183594-10.152344 148.046876-39.382813 250.683594-91.40625 4.925782-2.5 6.894532-8.515625 4.398438-13.441406-2.496094-4.925782-8.515625-6.894532-13.4375-4.398438-100.800782 51.09375-205.917969 79.84375-246.429688 89.832031-4.617187 1.136719-9.398437-1.347656-11.117187-5.785156-.984375-2.542969-.851563-5.28125.375-7.710937 1.222656-2.429688 3.339843-4.15625 5.964843-4.875 30.652344-8.378907 92.371094-26.714844 161.289063-55.390626 84.691406-35.242187 153.957031-74.9375 205.871094-117.996093 8.152343-6.761719 9.359375-18.964844 2.691406-27.207031l-10.023437-12.386719 74.386718-.605469-16.125 72.621094c-7.984375-8.398438-11.34375-18.671875-23.640625-19.710938-15.226562-1.269531-13.28125 9.503906-70.84375 47.488282-4.609375 3.042968-5.878906 9.246093-2.839843 13.855468 3.042968 4.609375 9.246093 5.878906 13.851562 2.835938 21.425781-14.136719 40.976562-28.945313 58.117188-44.015625zm0 0"/><path d="m490.433594 352.21875v-166.019531c0-18.625-15.152344-33.777344-33.777344-33.777344h-27.820312c-18.625 0-33.777344 15.152344-33.777344 33.777344v164.578125c-14.183594 12.824218-23.109375 31.359375-23.109375 51.941406 0 38.609375 31.414062 70.023438 70.023437 70.023438 63.019532 0 93.734375-77.0625 48.460938-120.523438zm-75.378906-14.1875v-151.832031c0-7.597657 6.183593-13.777344 13.78125-13.777344h27.820312c7.597656 0 13.777344 6.179687 13.777344 13.777344v152.542969c-17.667969-7.890626-37.9375-7.988282-55.378906-.710938zm26.917968 114.710938c-27.582031 0-50.023437-22.441407-50.023437-50.023438 0-35.933594 37.199219-60.175781 70.050781-45.84375 17.644531 7.738281 29.996094 25.375 29.996094 45.84375 0 27.582031-22.441406 50.023438-50.023438 50.023438zm0 0"/><path d="m460.105469 376.679688c-12.730469 10.230468-19.910157 23.898437-23.617188 33.21875l-15.195312-5.707032c-5.171875-1.941406-10.933594.675782-12.875 5.84375-1.941407 5.171875.671875 10.9375 5.84375 12.878906l19.480469 7.316407c1.742187.652343 3.582031.976562 5.417968.976562 2.269532 0 4.535156-.492187 6.613282-1.476562 3.761718-1.78125 6.691406-5.066407 8.03125-9.015625 2.324218-6.839844 7.855468-19.628906 18.828124-28.449219 4.304688-3.457031 4.988282-9.753906 1.527344-14.058594-3.457031-4.300781-9.75-4.984375-14.054687-1.527343zm0 0"/><path d="m327.933594 152.667969c0-5.519531-4.476563-10-10-10h-.027344c-5.519531 0-9.984375 4.480469-9.984375 10s4.488281 10 10.011719 10c5.523437 0 10-4.480469 10-10zm0 0"/></svg>