<svg height="464pt" viewBox="0 0 464 464" width="464pt" xmlns="http://www.w3.org/2000/svg"><path d="m464 464h-464c0-44.183594 35.816406-80 80-80h304c44.183594 0 80 35.816406 80 80zm0 0" fill="#995023"/><path d="m80 344h-16v-16c0-26.507812 21.492188-48 48-48h16v16c0 26.507812-21.492188 48-48 48zm0 0" fill="#6e912d"/><path d="m80 248h-16v-16c0-26.507812 21.492188-48 48-48h16v16c0 26.507812-21.492188 48-48 48zm0 0" fill="#6e912d"/><path d="m80 152h-16v-16c0-26.507812 21.492188-48 48-48h16v16c0 26.507812-21.492188 48-48 48zm0 0" fill="#6e912d"/><path d="m80 56h-16v-16c0-22.089844 17.910156-40 40-40h16v16c0 22.089844-17.910156 40-40 40zm0 0" fill="#6e912d"/><g fill="#7ea633"><path d="m56 56h16v368h-16zm0 0"/><path d="m0 280h16c26.507812 0 48 21.492188 48 48v16h-16c-26.507812 0-48-21.492188-48-48zm0 0"/><path d="m0 184h16c26.507812 0 48 21.492188 48 48v16h-16c-26.507812 0-48-21.492188-48-48zm0 0"/><path d="m0 88h16c26.507812 0 48 21.492188 48 48v16h-16c-26.507812 0-48-21.492188-48-48zm0 0"/><path d="m8 0h16c22.089844 0 40 17.910156 40 40v16h-16c-22.089844 0-40-17.910156-40-40zm0 0"/></g><path d="m96 408h16v16h-16zm0 0" fill="#7a3e1a"/><path d="m144 424h16v16h-16zm0 0" fill="#7a3e1a"/><path d="m272 408h16v16h-16zm0 0" fill="#7a3e1a"/><path d="m344 416h16v16h-16zm0 0" fill="#7a3e1a"/><path d="m248 344h-16v-16c0-26.507812 21.492188-48 48-48h16v16c0 26.507812-21.492188 48-48 48zm0 0" fill="#6e912d"/><path d="m248 248h-16v-16c0-26.507812 21.492188-48 48-48h16v16c0 26.507812-21.492188 48-48 48zm0 0" fill="#6e912d"/><path d="m248 152h-16v-16c0-26.507812 21.492188-48 48-48h16v16c0 26.507812-21.492188 48-48 48zm0 0" fill="#6e912d"/><path d="m248 56h-16v-16c0-22.089844 17.910156-40 40-40h16v16c0 22.089844-17.910156 40-40 40zm0 0" fill="#6e912d"/><path d="m224 56h16v368h-16zm0 0" fill="#7ea633"/><path d="m168 280h16c26.507812 0 48 21.492188 48 48v16h-16c-26.507812 0-48-21.492188-48-48zm0 0" fill="#7ea633"/><path d="m168 184h16c26.507812 0 48 21.492188 48 48v16h-16c-26.507812 0-48-21.492188-48-48zm0 0" fill="#7ea633"/><path d="m168 88h16c26.507812 0 48 21.492188 48 48v16h-16c-26.507812 0-48-21.492188-48-48zm0 0" fill="#7ea633"/><path d="m176 0h16c22.089844 0 40 17.910156 40 40v16h-16c-22.089844 0-40-17.910156-40-40zm0 0" fill="#7ea633"/><path d="m416 344h-16v-16c0-26.507812 21.492188-48 48-48h16v16c0 26.507812-21.492188 48-48 48zm0 0" fill="#6e912d"/><path d="m416 248h-16v-16c0-26.507812 21.492188-48 48-48h16v16c0 26.507812-21.492188 48-48 48zm0 0" fill="#6e912d"/><path d="m416 152h-16v-16c0-26.507812 21.492188-48 48-48h16v16c0 26.507812-21.492188 48-48 48zm0 0" fill="#6e912d"/><path d="m416 56h-16v-16c0-22.089844 17.910156-40 40-40h16v16c0 22.089844-17.910156 40-40 40zm0 0" fill="#6e912d"/><path d="m392 56h16v368h-16zm0 0" fill="#7ea633"/><path d="m336 280h16c26.507812 0 48 21.492188 48 48v16h-16c-26.507812 0-48-21.492188-48-48zm0 0" fill="#7ea633"/><path d="m336 184h16c26.507812 0 48 21.492188 48 48v16h-16c-26.507812 0-48-21.492188-48-48zm0 0" fill="#7ea633"/><path d="m336 88h16c26.507812 0 48 21.492188 48 48v16h-16c-26.507812 0-48-21.492188-48-48zm0 0" fill="#7ea633"/><path d="m344 0h16c22.089844 0 40 17.910156 40 40v16h-16c-22.089844 0-40-17.910156-40-40zm0 0" fill="#7ea633"/></svg>