<svg height="464pt" viewBox="-27 0 464 464.00553" width="464pt" xmlns="http://www.w3.org/2000/svg"><path d="m208.003906 88c8.835938 0 16 7.164062 16 16v328h-32v-328c0-8.835938 7.164063-16 16-16zm0 0" fill="#c8d952"/><path d="m384.003906 128.9375c-37.488281 37.488281-83.878906 44.113281-112 16s-21.488281-74.511719 16-112c37.488282-37.488281 120.746094-32.742188 120.746094-32.742188s12.742188 91.246094-24.746094 128.742188zm0 0" fill="#8ec13f"/><path d="m256.003906 168.9375c-3.234375 0-6.152344-1.949219-7.390625-4.9375s-.550781-6.429688 1.734375-8.71875l64-64c3.140625-3.03125 8.128906-2.988281 11.214844.097656 3.085938 3.085938 3.128906 8.074219.097656 11.214844l-64 64c-1.496094 1.503906-3.53125 2.347656-5.65625 2.34375zm0 0" fill="#2b823c"/><path d="m296.003906 80.9375c-2.878906-.003906-5.53125-1.554688-6.949218-4.0625-1.417969-2.507812-1.378907-5.578125.101562-8.050781 26.046875-43.382813 76.703125-43.886719 78.847656-43.886719 4.417969 0 8 3.582031 8 8s-3.582031 8-8 8c-.433594 0-43.863281.625-65.160156 36.121094-1.441406 2.402344-4.039062 3.871094-6.839844 3.878906zm0 0" fill="#fcf05a"/><path d="m336.003906 128c-4.417968.160156-8.128906-3.292969-8.289062-7.710938-.15625-4.417968 3.296875-8.128906 7.714844-8.289062 7.359374-2.886719 13.871093-7.59375 18.917968-13.679688 3.140625-3.03125 8.128906-2.988281 11.214844.097657 3.085938 3.085937 3.128906 8.078125.097656 11.214843-17.015625 17.046876-27 18.367188-29.65625 18.367188zm0 0" fill="#fcf05a"/><path d="m32.285156 232c37.496094 37.488281 83.886719 44.121094 112 16 28.109375-28.117188 21.496094-74.511719-16-112s-128-40-128-40-5.488281 98.511719 32 136zm0 0" fill="#8ec13f"/><path d="m160.285156 272c-2.121094 0-4.15625-.84375-5.65625-2.34375l-64-64c-3.03125-3.136719-2.988281-8.128906.097656-11.214844 3.085938-3.085937 8.074219-3.128906 11.214844-.097656l64 64c2.285156 2.289062 2.96875 5.730469 1.730469 8.71875-1.234375 2.988281-4.152344 4.9375-7.386719 4.9375zm0 0" fill="#2b823c"/><path d="m120.292969 184c-2.8125.003906-5.417969-1.46875-6.863281-3.878906-21.296876-35.496094-64.730469-36.121094-65.160157-36.121094-4.417969 0-8-3.582031-8-8s3.582031-8 8-8c2.144531 0 52.796875.496094 78.863281 43.882812 1.484376 2.46875 1.523438 5.542969.109376 8.050782-1.414063 2.507812-4.070313 4.0625-6.949219 4.066406zm0 0" fill="#fcf05a"/><path d="m80.285156 232c-2.648437 0-12.632812-1.320312-29.65625-18.34375-3.03125-3.136719-2.988281-8.128906.097656-11.214844 3.085938-3.085937 8.074219-3.128906 11.214844-.097656 12.535156 12.53125 18.925782 13.65625 18.992188 13.65625 2.089844.011719 4.085937.867188 5.53125 2.375 1.449218 1.507812 2.222656 3.539062 2.148437 5.625-.148437 4.484375-3.84375 8.035156-8.328125 8zm0 0" fill="#fcf05a"/><path d="m298.667969 373.335938c-8.691407.011718-17.191407 2.539062-24.480469 7.273437-7.132812-30.800781-34.570312-52.605469-66.183594-52.605469-31.613281 0-59.050781 21.804688-66.183594 52.605469-16.242187-10.445313-37.320312-9.449219-52.5 2.488281-15.179687 11.9375-21.125 32.183594-14.804687 50.433594 6.320313 18.246094 23.511719 30.480469 42.824219 30.46875h181.328125c16.339843.21875 31.53125-8.375 39.765625-22.488281 8.230468-14.117188 8.230468-31.570313 0-45.683594-8.234375-14.113281-23.425782-22.707031-39.765625-22.492187zm0 0" fill="#d3843d"/></svg>