<?xml version="1.0" encoding="iso-8859-1"?>
<!-- Generator: Adobe Illustrator 19.0.0, SVG Export Plug-In . SVG Version: 6.00 Build 0)  -->
<svg xmlns="http://www.w3.org/2000/svg" xmlns:xlink="http://www.w3.org/1999/xlink" version="1.1" id="Capa_1" x="0px" y="0px" viewBox="0 0 512 512" style="enable-background:new 0 0 512 512;" xml:space="preserve" width="512px" height="512px">
<g>
	<g>
		<path d="M59.373,137.033c-13.42,0-24.34,10.919-24.34,24.34c0,13.421,10.919,24.34,24.34,24.34s24.34-10.919,24.34-24.34    S72.794,137.033,59.373,137.033z M59.374,170.505c-5.035,0-9.132-4.097-9.132-9.132s4.097-9.132,9.132-9.132    c5.035,0,9.132,4.097,9.132,9.132C68.506,166.409,64.409,170.505,59.374,170.505z" fill="#0a1c58"/>
	</g>
</g>
<g>
	<g>
		<path d="M115.718,137.033c-13.421,0-24.34,10.919-24.34,24.34c0,13.421,10.919,24.34,24.34,24.34    c13.421,0,24.34-10.919,24.34-24.34S129.139,137.033,115.718,137.033z M115.718,170.505c-5.035,0-9.132-4.097-9.132-9.132    s4.097-9.132,9.132-9.132c5.036,0,9.132,4.097,9.132,9.132C124.85,166.409,120.753,170.505,115.718,170.505z" fill="#0a1c58"/>
	</g>
</g>
<g>
	<g>
		<path d="M172.062,137.033c-13.42,0-24.34,10.919-24.34,24.34c0,13.421,10.919,24.34,24.34,24.34    c13.421,0,24.34-10.919,24.34-24.34S185.483,137.033,172.062,137.033z M172.062,170.505c-5.035,0-9.132-4.097-9.132-9.132    s4.097-9.132,9.132-9.132c5.036,0,9.132,4.097,9.132,9.132C181.194,166.409,177.097,170.505,172.062,170.505z" fill="#0a1c58"/>
	</g>
</g>
<g>
	<g>
		<path d="M342.179,489.496H40.101c-13.725,0-24.89-11.166-24.89-24.89V211.559h292.498c4.199,0,7.604-3.405,7.604-7.604    s-3.404-7.604-7.604-7.604H15.211v-43.424c0-13.725,11.166-24.89,24.89-24.89H307.71c4.199,0,7.604-3.404,7.604-7.604    s-3.405-7.604-7.604-7.604H40.101c-22.11,0-40.098,17.988-40.098,40.098v50.959c0,0.023-0.003,0.046-0.003,0.069    s0.003,0.046,0.003,0.069v260.582c0,22.11,17.988,40.098,40.098,40.098h302.078c4.199,0,7.604-3.405,7.604-7.604    C349.783,492.901,346.38,489.496,342.179,489.496z" fill="#0a1c58"/>
	</g>
</g>
<g>
	<g>
		<path d="M471.892,112.828h-13.117c-4.199,0-7.604,3.405-7.604,7.604s3.405,7.604,7.604,7.604h13.117    c13.73,0,24.9,11.166,24.9,24.89v43.424h-38.019c-4.199,0-7.604,3.404-7.604,7.604s3.405,7.604,7.604,7.604h38.019v253.047    c0,13.725-11.171,24.89-24.9,24.89H367.528c-4.199,0-7.604,3.405-7.604,7.604s3.405,7.604,7.604,7.604h104.364    c22.115,0,40.108-17.988,40.108-40.098V152.926C512,130.816,494.008,112.828,471.892,112.828z" fill="#0a1c58"/>
	</g>
</g>
<g>
	<g>
		<path d="M156,313.601H96.94c-14.88,0-26.987,12.106-26.987,26.987v69.715c0,4.199,3.405,7.604,7.604,7.604    c4.199,0,7.604-3.405,7.604-7.604v-69.715c0-6.495,5.284-11.779,11.779-11.779H156c6.495,0,11.779,5.284,11.779,11.779v95.063    c0,6.495-5.284,11.779-11.779,11.779H96.94c-6.495,0-11.779-5.284-11.779-11.779c0-4.199-3.405-7.604-7.604-7.604    c-4.199,0-7.604,3.404-7.604,7.604c0,14.88,12.106,26.987,26.987,26.987H156c14.88,0,26.987-12.106,26.987-26.987v-95.063    C182.987,325.708,170.881,313.601,156,313.601z" fill="#0a1c58"/>
	</g>
</g>
<g>
	<g>
		<path d="M285.529,252.77h-59.06c-14.88,0-26.987,12.106-26.987,26.987v155.894c0,14.88,12.106,26.987,26.987,26.987h59.06    c14.88,0,26.987-12.106,26.987-26.987V279.757C312.517,264.876,300.41,252.77,285.529,252.77z M297.309,435.651    c0,6.495-5.284,11.779-11.779,11.779h-59.06c-6.495,0-11.779-5.284-11.779-11.779V279.757c0-6.495,5.284-11.779,11.779-11.779    h59.06c6.495,0,11.779,5.284,11.779,11.779V435.651z" fill="#0a1c58"/>
	</g>
</g>
<g>
	<g>
		<path d="M415.059,7.296h-59.06c-14.88,0-26.987,12.106-26.987,26.987v401.368c0,14.88,12.106,26.987,26.987,26.987h59.06    c14.88,0,26.987-12.106,26.987-26.987V34.283C442.046,19.403,429.94,7.296,415.059,7.296z M426.837,435.651    c0,6.495-5.284,11.779-11.779,11.779h-59.06c-6.495,0-11.779-5.284-11.779-11.779V34.283c0-6.495,5.284-11.779,11.779-11.779    h59.06c6.495,0,11.779,5.284,11.779,11.779V435.651z" fill="#0a1c58"/>
	</g>
</g>
<g>
</g>
<g>
</g>
<g>
</g>
<g>
</g>
<g>
</g>
<g>
</g>
<g>
</g>
<g>
</g>
<g>
</g>
<g>
</g>
<g>
</g>
<g>
</g>
<g>
</g>
<g>
</g>
<g>
</g>
</svg>
